<svg xmlns="http://www.w3.org/2000/svg" width="296" height="413" viewBox="0 0 296 413">
    <g fill="none" fill-rule="evenodd">
        <path fill="#FFF" d="M.684 412.813h294.775V.683H.684z"/>
        <path fill="#E3000F" d="M6.339 407.159h283.465v-51.023H6.339z"/>
        <path fill="#00131A" d="M134.874 276.039c-1.246 4.674-5.12 7.577-10.11 7.577h-9.392l3.816-14.316h10.34c1.606 0 3.755.311 4.887 1.786 1.093 1.419.853 3.475.46 4.953m9.65-12.327c-2.656-3.453-7.009-5.277-12.596-5.277h-21.621l-.353 1.318-14.31 53.682-.598 2.232H106.825l.353-1.317 5.278-19.792h10.788c10.874 0 20.401-7.24 23.166-17.604 1.376-5.164.708-9.869-1.886-13.242M200.043 294.4l10.134-16.444 1.205 16.443h-11.339zm24.85 19.32l-5.269-53.683-.157-1.603h-9.119l-.522.827-28.757 45.543h-23.436l11.771-44.137.595-2.233h-11.778l-.352 1.32-14.312 53.68-.596 2.233H187.063l.518-.854 6.03-9.926h18.436l.679 9.136.123 1.644h12.236l-.192-1.948zM289.804 258.435l-.596 2.232-14.31 53.682-.353 1.318h-10.009l-.44-1.134-12.646-32.687-8.666 32.503-.351 1.318h-11.778l.596-2.232 14.31-53.682.35-1.318h10.01l.44 1.133 12.66 32.626 8.65-32.441.355-1.318h9.466zM79.96 328.071l-.172.136c-5.931 4.673-11.818 8.537-18.56 11.204h228.576v-11.34H79.96z"/>
        <path fill="#E3000F" d="M32.958 282.75h36.704c.966-4.387 1.053-6.753.469-10.217-.964-6.3-5.695-9.9-12.986-9.9-7.53 0-15.009 4.056-19.52 10.586-2.316 3.289-3.383 5.558-4.667 9.53m5.889 56.656c-12.556 0-21.646-3.552-27.022-10.56-6.272-8.174-7.169-20.821-2.674-37.582 7.79-29.041 27.728-47.08 52.029-47.08 10.918 0 19.434 3.579 24.63 10.352 6.253 8.153 7.471 20.243 3.524 34.962l-2.472 9.226H28.605c-1.707 7.178-1.112 12.904 1.731 16.616 2.589 3.37 6.976 5.082 13.046 5.082 10.129 0 15.761-2.975 23.198-8.825l1.333-1.052L78.662 324l-1.35 1.064c-11.236 8.854-21.588 14.34-38.465 14.34M232.88 45.22l-55.262 151.832c-3.105 8.534-12.54 12.933-21.071 9.827-8.532-3.105-12.933-12.54-9.827-21.072v-.001l55.263-151.831c3.105-8.531 12.54-12.93 21.072-9.824 8.53 3.104 12.93 12.539 9.825 21.07zm-101.934 0l-32.203 88.477c-3.105 8.533-12.54 12.932-21.071 9.827-8.532-3.106-12.933-12.54-9.827-21.073v-.001l32.203-88.475c3.105-8.532 12.54-12.931 21.072-9.825 8.53 3.105 12.93 12.539 9.826 21.07zm50.946 0L126.63 197.053h-.001c-3.105 8.533-12.54 12.933-21.072 9.827-8.532-3.105-12.933-12.54-9.827-21.072v-.001l55.262-151.831c3.107-8.531 12.54-12.93 21.073-9.825 8.532 3.105 12.93 12.539 9.827 21.07zM6.339 224.608h283.465V6.339H6.339v218.268z"/>
        <path fill="#1A1A18" d="M148.96 23.178l-3.912-.023-67.226 184.7h3.921zM128.653 207.854h3.921l67.217-184.677-3.912-.023zM66.967 97.585l27.088-74.418 3.926-.013-31.014 85.226zM233.629 59.652l-53.941 148.202h3.92l50.02-137.438z"/>
    </g>
</svg>