<?xml version="1.0" standalone="no"?>
<!DOCTYPE svg PUBLIC "-//W3C//DTD SVG 20010904//EN"
 "http://www.w3.org/TR/2001/REC-SVG-20010904/DTD/svg10.dtd">
<svg version="1.0" xmlns="http://www.w3.org/2000/svg"
 width="114.000000pt" height="119.000000pt" viewBox="0 0 114.000000 119.000000"
 preserveAspectRatio="xMidYMid meet">

<g transform="translate(0.000000,119.000000) scale(0.100000,-0.100000)"
fill="#000000" stroke="none">
<path d="M636 1030 c-98 -27 -179 -50 -180 -52 -1 -2 -15 -24 -30 -50 l-27
-48 -57 0 -57 0 -135 -135 -135 -135 135 -135 135 -135 58 0 c55 0 59 -2 75
-31 36 -65 41 -68 227 -119 99 -26 181 -48 181 -47 5 6 94 352 94 365 0 8 -11
35 -25 59 l-26 43 26 43 c14 24 25 50 25 58 0 24 -93 369 -99 368 -3 0 -86
-22 -185 -49z m52 -98 c-1 -4 -37 -67 -78 -139 l-75 -132 -163 -1 -163 0 101
104 101 104 132 34 c154 41 150 40 145 30z m92 -57 c0 -2 16 -63 35 -134 l36
-130 -37 -135 c-21 -75 -40 -136 -43 -136 -3 0 -41 61 -83 135 l-77 135 77
135 c66 115 92 152 92 130z m-171 -445 c52 -92 75 -140 65 -140 -24 0 -258 63
-272 73 -7 5 -53 54 -103 108 l-91 99 160 0 160 0 81 -140z"/>
</g>
</svg>
